<svg width="176" height="112" viewBox="0 0 176 112" fill="none" xmlns="http://www.w3.org/2000/svg">
<g filter="url(#filter0_d)">
<path d="M6.58 61.026H9.805C9.86233 61.9147 9.90533 62.7317 9.934 63.477C9.99133 64.1937 10.0487 64.9103 10.106 65.627C10.7653 64.079 11.697 62.8463 12.901 61.929C14.1337 61.0117 15.6387 60.553 17.416 60.553C19.222 60.553 20.6697 61.0547 21.759 62.058C22.8483 63.0613 23.4217 64.3513 23.479 65.928V79H19.781V67.605C19.7237 66.6877 19.4083 65.9137 18.835 65.283C18.2617 64.6237 17.3587 64.2653 16.126 64.208C15.266 64.208 14.4777 64.3657 13.761 64.681C13.0443 64.9677 12.428 65.369 11.912 65.885C11.396 66.401 10.9803 67.0173 10.665 67.734C10.3783 68.4507 10.235 69.239 10.235 70.099V79H6.58V61.026ZM43.6799 76.893C42.8199 77.667 41.7736 78.2833 40.5409 78.742C39.3083 79.2007 38.0469 79.43 36.7569 79.43C35.4383 79.43 34.1913 79.1863 33.0159 78.699C31.8693 78.183 30.8659 77.5093 30.0059 76.678C29.1459 75.818 28.4579 74.8147 27.9419 73.668C27.4546 72.5213 27.2109 71.303 27.2109 70.013C27.2109 68.723 27.4546 67.5047 27.9419 66.358C28.4579 65.2113 29.1459 64.208 30.0059 63.348C30.8659 62.488 31.8549 61.8143 32.9729 61.327C34.1196 60.811 35.3379 60.553 36.6279 60.553C38.6633 60.553 40.4263 61.1693 41.9169 62.402C43.4363 63.606 44.5256 65.197 45.1849 67.175C44.2963 67.4903 43.2786 67.8773 42.1319 68.336C40.9853 68.7947 39.7956 69.282 38.5629 69.798C37.3303 70.2853 36.0976 70.7727 34.8649 71.26C33.6323 71.7473 32.4856 72.1917 31.4249 72.593C31.9123 73.5677 32.6146 74.356 33.5319 74.958C34.4779 75.5313 35.5243 75.818 36.6709 75.818C37.4449 75.818 38.2189 75.6747 38.9929 75.388C39.7956 75.1013 40.4406 74.7143 40.9279 74.227L43.6799 76.893ZM40.5839 66.315C40.2399 65.5983 39.6953 65.068 38.9499 64.724C38.2046 64.3513 37.4449 64.165 36.6709 64.165C35.8396 64.165 35.0656 64.3227 34.3489 64.638C33.6609 64.9533 33.0589 65.3833 32.5429 65.928C32.0269 66.444 31.6113 67.046 31.2959 67.734C31.0093 68.422 30.8659 69.1243 30.8659 69.841C30.8659 69.9843 30.8659 70.0847 30.8659 70.142C30.8946 70.1993 30.9089 70.2423 30.9089 70.271C31.6543 69.9843 32.4569 69.669 33.3169 69.325C34.2056 68.9523 35.0799 68.594 35.9399 68.25C36.7999 67.8773 37.6313 67.5333 38.4339 67.218C39.2366 66.874 39.9533 66.573 40.5839 66.315ZM47.1152 69.97C47.1152 68.68 47.3589 67.4617 47.8462 66.315C48.3622 65.1683 49.0502 64.1793 49.9102 63.348C50.7702 62.488 51.7736 61.8143 52.9202 61.327C54.0956 60.811 55.3569 60.553 56.7042 60.553C58.0516 60.553 59.2986 60.811 60.4452 61.327C61.6206 61.8143 62.6239 62.488 63.4552 63.348C64.3152 64.1793 64.9746 65.1683 65.4332 66.315C65.9206 67.4617 66.1642 68.68 66.1642 69.97C66.1642 71.26 65.9206 72.4783 65.4332 73.625C64.9746 74.7717 64.3152 75.775 63.4552 76.635C62.6239 77.495 61.6206 78.183 60.4452 78.699C59.2986 79.1863 58.0372 79.43 56.6612 79.43C55.3426 79.43 54.0956 79.2007 52.9202 78.742C51.7736 78.2833 50.7702 77.6383 49.9102 76.807C49.0502 75.9757 48.3622 74.9867 47.8462 73.84C47.3589 72.6647 47.1152 71.3747 47.1152 69.97ZM50.7702 70.013C50.7702 70.8157 50.9136 71.5753 51.2002 72.292C51.5156 72.98 51.9312 73.5963 52.4472 74.141C52.9919 74.657 53.6082 75.0727 54.2962 75.388C55.0129 75.6747 55.7726 75.818 56.5752 75.818C57.3779 75.818 58.1376 75.6747 58.8542 75.388C59.5709 75.0727 60.1872 74.657 60.7032 74.141C61.2479 73.5963 61.6779 72.98 61.9932 72.292C62.3086 71.5753 62.4662 70.8157 62.4662 70.013C62.4662 69.2103 62.3086 68.4507 61.9932 67.734C61.6779 67.0173 61.2479 66.401 60.7032 65.885C60.1872 65.3403 59.5709 64.9247 58.8542 64.638C58.1376 64.3227 57.3779 64.165 56.5752 64.165C55.7726 64.165 55.0129 64.3227 54.2962 64.638C53.6082 64.9247 52.9919 65.3403 52.4472 65.885C51.9312 66.401 51.5156 67.0173 51.2002 67.734C50.9136 68.4507 50.7702 69.2103 50.7702 70.013ZM112.636 75.256C112.06 75.688 111.244 76.168 110.188 76.696C109.18 77.176 107.98 77.632 106.588 78.064C105.196 78.496 103.636 78.856 101.908 79.144C100.228 79.432 98.4282 79.576 96.5082 79.576C92.4282 79.576 88.7562 78.88 85.4922 77.488C82.2762 76.048 79.5402 74.128 77.2842 71.728C75.0282 69.328 73.3002 66.544 72.1002 63.376C70.9002 60.208 70.3002 56.848 70.3002 53.296C70.3002 49.36 70.9962 45.736 72.3882 42.424C73.8282 39.112 75.7722 36.256 78.2202 33.856C80.6682 31.456 83.5242 29.584 86.7882 28.24C90.1002 26.896 93.6042 26.224 97.3002 26.224C98.6922 26.224 100.108 26.32 101.548 26.512C102.988 26.704 104.332 26.968 105.58 27.304C106.876 27.64 108.004 28.048 108.964 28.528C109.972 28.96 110.74 29.416 111.268 29.896C110.884 30.472 110.572 30.952 110.332 31.336C110.14 31.72 109.924 32.128 109.684 32.56C109.444 32.944 109.18 33.4 108.892 33.928C108.604 34.456 108.22 35.152 107.74 36.016C107.116 35.584 106.372 35.224 105.508 34.936C104.692 34.648 103.828 34.408 102.916 34.216C102.004 34.024 101.068 33.88 100.108 33.784C99.1962 33.688 98.3562 33.64 97.5882 33.64C94.8042 33.64 92.2122 34.168 89.8122 35.224C87.4602 36.232 85.4202 37.624 83.6922 39.4C81.9642 41.128 80.5962 43.144 79.5882 45.448C78.6282 47.752 78.1482 50.152 78.1482 52.648C78.1482 55.096 78.6042 57.448 79.5162 59.704C80.4762 61.96 81.7722 63.976 83.4042 65.752C85.0842 67.528 87.0762 68.944 89.3802 70C91.7322 71.056 94.3002 71.584 97.0842 71.584C98.5722 71.584 100.012 71.44 101.404 71.152C102.796 70.864 104.044 70.528 105.148 70.144C106.3 69.76 107.236 69.376 107.956 68.992C108.724 68.608 109.18 68.32 109.324 68.128L112.636 75.256ZM115.986 45.589H119.641V65.369C120.272 63.9357 121.161 62.789 122.307 61.929C123.454 61.0403 124.93 60.5817 126.736 60.553C128.571 60.5243 130.033 61.0117 131.122 62.015C132.24 63.0183 132.828 64.3227 132.885 65.928V79H129.187V67.605C129.13 66.6877 128.815 65.9137 128.241 65.283C127.668 64.6237 126.765 64.2653 125.532 64.208C124.672 64.208 123.884 64.3657 123.167 64.681C122.451 64.9677 121.834 65.369 121.318 65.885C120.802 66.401 120.387 67.0173 120.071 67.734C119.785 68.4507 119.641 69.239 119.641 70.099V79H115.986V45.589ZM136.617 70.185C136.617 68.8663 136.861 67.6337 137.348 66.487C137.864 65.3117 138.552 64.294 139.412 63.434C140.272 62.5453 141.261 61.843 142.379 61.327C143.526 60.811 144.744 60.553 146.034 60.553C146.894 60.553 147.683 60.6677 148.399 60.897C149.116 61.0977 149.732 61.3557 150.248 61.671C150.764 61.9863 151.18 62.316 151.495 62.66C151.811 63.004 152.026 63.305 152.14 63.563L152.312 61.026H155.838V79H152.14V76.721C151.997 76.9503 151.768 77.2227 151.452 77.538C151.137 77.8533 150.721 78.1543 150.205 78.441C149.718 78.699 149.13 78.9283 148.442 79.129C147.754 79.3297 146.966 79.43 146.077 79.43C144.701 79.43 143.426 79.1863 142.25 78.699C141.104 78.183 140.115 77.5093 139.283 76.678C138.452 75.818 137.793 74.829 137.305 73.711C136.847 72.593 136.617 71.4177 136.617 70.185ZM140.315 69.97C140.315 70.8013 140.459 71.5753 140.745 72.292C141.061 73.0087 141.476 73.625 141.992 74.141C142.508 74.657 143.125 75.0727 143.841 75.388C144.558 75.6747 145.346 75.818 146.206 75.818C147.066 75.818 147.855 75.6747 148.571 75.388C149.317 75.0727 149.947 74.657 150.463 74.141C151.008 73.5963 151.424 72.98 151.71 72.292C151.997 71.5753 152.14 70.8013 152.14 69.97C152.14 69.1387 151.997 68.379 151.71 67.691C151.424 66.9743 151.008 66.358 150.463 65.842C149.947 65.326 149.317 64.9247 148.571 64.638C147.855 64.3227 147.066 64.165 146.206 64.165C145.346 64.165 144.558 64.3227 143.841 64.638C143.125 64.9247 142.508 65.326 141.992 65.842C141.476 66.358 141.061 66.9743 140.745 67.691C140.459 68.379 140.315 69.1387 140.315 69.97ZM162.55 53.114H166.205V61.069H171.021V64.337H166.205V79H162.55V64.337H159.325V61.069H162.55V53.114Z" fill="black"/>
<path d="M7 92C36.76 92 66.52 92 96.28 92" stroke="black" stroke-width="4" stroke-linecap="round" stroke-linejoin="round"/>
<path d="M6.98853 101.517C28.5671 101.517 50.1456 101.517 71.7242 101.517" stroke="black" stroke-width="4" stroke-linecap="round" stroke-linejoin="round"/>
<path d="M79 101.52H84.5" stroke="black" stroke-width="4" stroke-linecap="round" stroke-linejoin="bevel"/>
<path d="M93 101.52H94.5" stroke="black" stroke-width="4" stroke-linecap="round" stroke-linejoin="bevel"/>
</g>
<defs>
<filter id="filter0_d" x="0" y="0" width="176" height="116" filterUnits="userSpaceOnUse" color-interpolation-filters="sRGB">
<feFlood flood-opacity="0" result="BackgroundImageFix"/>
<feColorMatrix in="SourceAlpha" type="matrix" values="0 0 0 0 0 0 0 0 0 0 0 0 0 0 0 0 0 0 127 0"/>
<feOffset dy="4"/>
<feGaussianBlur stdDeviation="2"/>
<feColorMatrix type="matrix" values="0 0 0 0 0 0 0 0 0 0 0 0 0 0 0 0 0 0 0.25 0"/>
<feBlend mode="normal" in2="BackgroundImageFix" result="effect1_dropShadow"/>
<feBlend mode="normal" in="SourceGraphic" in2="effect1_dropShadow" result="shape"/>
</filter>
</defs>
</svg>
